<?xml version="1.0" encoding="UTF-8"?>
<svg version="1.1" xmlns="http://www.w3.org/2000/svg" width="400" height="200">
    <path d="M0 0 C0 0.99 0 1.98 0 3 C-1.92385666 4.60218287 -3.80427754 5.98466972 -5.875 7.375 C-7.17113807 8.27262198 -8.4666829 9.17110103 -9.76171875 10.0703125 C-10.45313965 10.54629883 -11.14456055 11.02228516 -11.85693359 11.51269531 C-15.50246544 14.04272265 -19.09348868 16.64754863 -22.6875 19.25 C-23.81841064 20.06670166 -23.81841064 20.06670166 -24.97216797 20.89990234 C-31.29519529 25.47222402 -37.57622139 30.10034716 -43.8515625 34.73779297 C-52.18696175 40.89085199 -60.58806939 46.95216701 -69 53 C-66.97782379 51.85648896 -64.95719214 50.71038643 -62.9375 49.5625 C-62.31641357 49.2106665 -61.69532715 48.85883301 -61.05541992 48.49633789 C-57.61011599 46.53282031 -54.20339124 44.52425323 -50.8359375 42.4296875 C-50.16312744 42.01388428 -49.49031738 41.59808105 -48.79711914 41.16967773 C-47.48887045 40.35743378 -46.18579293 39.53679236 -44.88842773 38.70727539 C-43.30433972 37.72736313 -41.65540565 36.85392915 -40 36 C-38.515 36.495 -38.515 36.495 -37 37 C-35.6496582 39.74389648 -35.6496582 39.74389648 -34.30078125 43.37109375 C-34.0608696 44.00862076 -33.82095795 44.64614777 -33.57377625 45.30299377 C-33.06849615 46.65190961 -32.5686984 48.00288981 -32.07397461 49.35571289 C-31.31533559 51.42974782 -30.54112208 53.49740524 -29.76367188 55.56445312 C-26 65.65796133 -26 65.65796133 -26 68 C-46.91382707 72.89039815 -67.84978547 77.67798405 -88.82086182 82.31723022 C-91.06430408 82.81385909 -93.30742865 83.31192526 -95.55023193 83.81143188 C-98.71354127 84.51532435 -101.87804436 85.21356651 -105.04296875 85.91015625 C-105.99234818 86.12222717 -106.9417276 86.3342981 -107.9198761 86.55279541 C-108.79605087 86.74428162 -109.67222565 86.93576782 -110.57495117 87.13305664 C-111.33668137 87.30132462 -112.09841156 87.46959259 -112.88322449 87.64295959 C-115 88 -115 88 -119 88 C-117.34167213 84.05432335 -114.6527597 81.06592977 -111.875 77.875 C-110.8674549 76.70140833 -109.86095016 75.52692273 -108.85546875 74.3515625 C-108.36353027 73.77696289 -107.8715918 73.20236328 -107.36474609 72.61035156 C-105.59610307 70.52341608 -103.8859909 68.39429871 -102.1875 66.25 C-96.23827897 58.74175878 -90.10122541 51.38474627 -84 44 C-86.38564077 44.57584432 -88.66682784 45.22227595 -91 46 C-93.12548828 44.92358398 -93.12548828 44.92358398 -95.5703125 43.24609375 C-96.4675 42.63830078 -97.3646875 42.03050781 -98.2890625 41.40429688 C-99.22492188 40.75525391 -100.16078125 40.10621094 -101.125 39.4375 C-102.49398437 38.50454102 -102.49398437 38.50454102 -103.890625 37.55273438 C-105.70986326 36.31269804 -107.5253476 35.06713533 -109.33691406 33.81591797 C-112.65125525 31.55591891 -116.02399946 29.39158679 -119.41357422 27.24633789 C-119.93709473 26.83504639 -120.46061523 26.42375488 -121 26 C-121 25.34 -121 24.68 -121 24 C-109.80108896 21.75551982 -98.6019519 19.51217096 -87.40254879 17.27014732 C-82.19851787 16.22831102 -76.99455678 15.18612892 -71.79077148 14.14306641 C-47.87551542 9.34969091 -23.95635495 4.58417739 0 0 Z " fill="#1272BC" transform="translate(195,24)"/>
    <path d="M0 0 C1.3503418 2.74389648 1.3503418 2.74389648 2.69921875 6.37109375 C2.9391304 7.00862076 3.17904205 7.64614777 3.42622375 8.30299377 C3.93150385 9.65190961 4.4313016 11.00288981 4.92602539 12.35571289 C5.68466441 14.42974782 6.45887792 16.49740524 7.23632812 18.56445312 C11 28.65796133 11 28.65796133 11 31 C-9.19148884 35.70257522 -29.39465704 40.35468263 -49.62466431 44.88897705 C-51.62099144 45.33711762 -53.61690544 45.78710263 -55.61239624 46.23895264 C-58.42014361 46.87415881 -61.2293553 47.50243418 -64.0390625 48.12890625 C-64.87388657 48.31909836 -65.70871063 48.50929047 -66.5688324 48.70524597 C-70.44833542 49.56246578 -73.99784104 50.24125776 -78 50 C-75.08338965 45.99584003 -71.86597866 43.20754928 -67.8125 40.4375 C-66.55062451 39.55881881 -65.28891279 38.67990238 -64.02734375 37.80078125 C-63.36718262 37.34396973 -62.70702148 36.8871582 -62.02685547 36.41650391 C-60.00230196 35.00160876 -58.00107632 33.55870797 -56.00390625 32.10546875 C-46.19828703 25.00254529 -36.06564386 18.67665078 -25.62304688 12.55712891 C-22.85914025 10.91638091 -20.12335559 9.23508688 -17.390625 7.54296875 C-16.47772705 6.98158203 -15.5648291 6.42019531 -14.62426758 5.84179688 C-12.86426926 4.75813049 -11.10869783 3.66723346 -9.3581543 2.56835938 C-8.56836182 2.08560547 -7.77856934 1.60285156 -6.96484375 1.10546875 C-6.2699585 0.67387451 -5.57507324 0.24228027 -4.85913086 -0.20239258 C-3 -1 -3 -1 0 0 Z " fill="#6DABD7" transform="translate(158,61)"/>
    <path d="M0 0 C3.3 0 6.6 0 10 0 C10.01458252 0.80219971 10.02916504 1.60439941 10.04418945 2.4309082 C10.11856719 6.05859699 10.21526243 9.68535504 10.3125 13.3125 C10.33505859 14.57513672 10.35761719 15.83777344 10.38085938 17.13867188 C10.41630859 18.34716797 10.45175781 19.55566406 10.48828125 20.80078125 C10.51446533 21.91622314 10.54064941 23.03166504 10.56762695 24.1809082 C10.7804028 27.00037501 10.7804028 27.00037501 12.37182617 28.89526367 C14.02628958 30.2560564 14.02628958 30.2560564 16.5625 29.875 C19.3261611 29.15610832 19.3261611 29.15610832 21 26 C21.36844508 23.1913957 21.36844508 23.1913957 21.4140625 20.01953125 C21.45273438 18.85615234 21.49140625 17.69277344 21.53125 16.49414062 C21.57765625 14.67172852 21.57765625 14.67172852 21.625 12.8125 C21.66367188 11.58595703 21.70234375 10.35941406 21.7421875 9.09570312 C21.83656103 6.06395344 21.92214549 3.03221159 22 0 C24.97 0 27.94 0 31 0 C31.01458252 0.76666992 31.02916504 1.53333984 31.04418945 2.32324219 C31.1186922 5.79933493 31.21534646 9.27446968 31.3125 12.75 C31.33505859 13.9565625 31.35761719 15.163125 31.38085938 16.40625 C31.4340332 18.14648438 31.4340332 18.14648438 31.48828125 19.921875 C31.51446533 20.99018555 31.54064941 22.05849609 31.56762695 23.15917969 C32.04277175 26.28102318 32.90416047 27.68701295 35 30 C37.97065509 29.65772428 37.97065509 29.65772428 41 29 C42.36839363 26.26321275 42.21634818 23.95735576 42.31640625 20.8984375 C42.37924805 19.08085937 42.37924805 19.08085937 42.44335938 17.2265625 C42.48267578 15.95554688 42.52199219 14.68453125 42.5625 13.375 C42.62727539 11.456875 42.62727539 11.456875 42.69335938 9.5 C42.79969886 6.33344652 42.90172833 3.16681247 43 0 C46.3 0 49.6 0 53 0 C53.08802152 3.9790243 53.14073233 7.95779388 53.1875 11.9375 C53.21263672 13.05447266 53.23777344 14.17144531 53.26367188 15.32226562 C53.32182873 21.93276146 53.08871434 28.02149419 50 34 C46.13973567 37.67644222 42.37022563 38.72453216 37.18359375 39.109375 C32.88131024 38.893876 29.9664776 36.9664776 27 34 C26.34 34.639375 25.68 35.27875 25 35.9375 C20.5969208 38.96461695 16.76791322 39.47345884 11.625 38.59375 C7.36549512 37.41678155 5.38822648 36.46587178 2.5 33 C0.32430143 28.64860285 -0.12027882 25.61938776 -0.09765625 20.80078125 C-0.09443359 19.59228516 -0.09121094 18.38378906 -0.08789062 17.13867188 C-0.07951172 15.87603516 -0.07113281 14.61339844 -0.0625 13.3125 C-0.05573242 11.40114258 -0.05573242 11.40114258 -0.04882812 9.45117188 C-0.03702873 6.30073436 -0.02056597 3.15039051 0 0 Z " fill="#005CA7" transform="translate(228,134)"/>
    <path d="M0 0 C2.97 0 5.94 0 9 0 C9.33 4.62 9.66 9.24 10 14 C10.66 13.67 11.32 13.34 12 13 C16.9509132 12.45682427 20.89488185 12.47758051 25.4375 14.625 C30.66959824 19.47426178 31.78507467 24.82985142 32.25 31.6875 C32.12578638 38.24597898 30.67533153 43.99777452 26.4375 49.0625 C21.27972424 51.96960998 16.55856349 52.58496934 10.71875 51.625 C6.82178097 50.46172566 4.6702793 49.07546551 2.5625 45.5625 C0.11659118 39.98582789 -0.13620332 35.35053284 -0.09765625 29.296875 C-0.0962413 28.45908508 -0.09482635 27.62129517 -0.09336853 26.75811768 C-0.08778197 24.08870843 -0.07523194 21.4193838 -0.0625 18.75 C-0.05748326 16.93750121 -0.05292066 15.12500111 -0.04882812 13.3125 C-0.03781694 8.87496752 -0.02056155 4.43749809 0 0 Z M11.1875 22.75 C8.63030683 27.59520812 8.20201964 32.58491458 9.4609375 37.97265625 C10.15240198 40.16049308 10.15240198 40.16049308 12 43 C15.08369887 44.05749557 15.08369887 44.05749557 18 44 C21.83564715 39.99725535 22.52577392 37.43990762 22.4375 31.9375 C22.43621094 30.72964844 22.43492187 29.52179688 22.43359375 28.27734375 C21.97853217 24.83773413 21.47889576 23.38557263 19 21 C15.47866911 20.41311152 13.81393151 20.21413509 11.1875 22.75 Z " fill="#005CA7" transform="translate(150,121)"/>
    <path d="M0 0 C3.91652632 -0.08714316 7.83280311 -0.14043985 11.75 -0.1875 C12.86117187 -0.21263672 13.97234375 -0.23777344 15.1171875 -0.26367188 C16.18710938 -0.27333984 17.25703125 -0.28300781 18.359375 -0.29296875 C19.34389648 -0.3086792 20.32841797 -0.32438965 21.34277344 -0.34057617 C24.43998201 0.0563924 25.78171486 0.83241485 28 3 C28.64453125 5.6796875 28.64453125 5.6796875 28 9 C26.17457993 11.953438 23.9670762 14.51354076 21.6875 17.125 C20.50356392 18.52314769 19.3199596 19.92157639 18.13671875 21.3203125 C17.60780029 21.93148926 17.07888184 22.54266602 16.53393555 23.17236328 C14.9516796 25.05757227 13.47672504 27.03103328 12 29 C17.28 29.33 22.56 29.66 28 30 C28 32.64 28 35.28 28 38 C23.72929442 38.08692074 19.45881542 38.14036515 15.1875 38.1875 C13.97255859 38.21263672 12.75761719 38.23777344 11.50585938 38.26367188 C9.76079102 38.27817383 9.76079102 38.27817383 7.98046875 38.29296875 C6.90692139 38.3086792 5.83337402 38.32438965 4.72729492 38.34057617 C2 38 2 38 0.12719727 36.65356445 C-1 35 -1 35 -1.015625 32.25 C0.29740615 28.04830032 2.45424079 25.34323165 5.25 22 C5.72824219 21.40960938 6.20648438 20.81921875 6.69921875 20.2109375 C8.12005109 18.46281316 9.55660704 16.72954403 11 15 C12.65 13.02 14.3 11.04 16 9 C10.72 8.67 5.44 8.34 0 8 C0 5.36 0 2.72 0 0 Z " fill="#005CA7" transform="translate(198,134)"/>
    <path d="M0 0 C4.10403363 -0.08694042 8.20783129 -0.14037149 12.3125 -0.1875 C13.47974609 -0.21263672 14.64699219 -0.23777344 15.84960938 -0.26367188 C16.96787109 -0.27333984 18.08613281 -0.28300781 19.23828125 -0.29296875 C20.26993408 -0.3086792 21.30158691 -0.32438965 22.36450195 -0.34057617 C25 0 25 0 26.828125 1.34643555 C28.74246725 4.04765223 28.50936186 5.76496892 28 9 C26.54435794 11.57008339 24.72207953 13.75458941 22.8125 16 C22.32974609 16.59039062 21.84699219 17.18078125 21.34960938 17.7890625 C19.9140789 19.53867549 18.45871689 21.26967864 17 23 C15.35 24.98 13.7 26.96 12 29 C17.28 29.33 22.56 29.66 28 30 C28 32.64 28 35.28 28 38 C23.70838953 38.05783842 19.41687855 38.0935412 15.125 38.125 C13.90167969 38.14175781 12.67835938 38.15851563 11.41796875 38.17578125 C9.66806641 38.18544922 9.66806641 38.18544922 7.8828125 38.1953125 C6.80402832 38.20578613 5.72524414 38.21625977 4.61376953 38.22705078 C2 38 2 38 0 36 C-0.57811541 32.53565426 -0.63561487 30.08183599 1.17822266 26.99462891 C2.81490864 24.85694796 4.52990533 22.82999556 6.3125 20.8125 C7.49636817 19.42341091 8.67997042 18.03409514 9.86328125 16.64453125 C10.39219971 16.03971924 10.92111816 15.43490723 11.46606445 14.81176758 C13.05371116 12.93656047 14.52577866 10.96562845 16 9 C10.72 8.67 5.44 8.34 0 8 C0 5.36 0 2.72 0 0 Z " fill="#005CA7" transform="translate(297,134)"/>
    <path d="M0 0 C2.97 0 5.94 0 9 0 C9.33 10.23 9.66 20.46 10 31 C10.66 31 11.32 31 12 31 C11.45276317 34.37462715 10.9451 36.08235 9 39 C3.52637615 37.66200306 3.52637615 37.66200306 1.3190918 34.88598633 C-0.34888206 31.23669538 -0.34085436 28.51814826 -0.29296875 24.51171875 C-0.28872391 23.80852005 -0.28447906 23.10532135 -0.28010559 22.3808136 C-0.2634006 20.14930869 -0.22576614 17.91872887 -0.1875 15.6875 C-0.17244248 14.1686329 -0.15875594 12.64975154 -0.14648438 11.13085938 C-0.11352473 7.42027566 -0.06180016 3.71022822 0 0 Z " fill="#005CA7" transform="translate(283,134)"/>
    <path d="M0 0 C2.97 0 5.94 0 9 0 C9.01981934 0.89307861 9.03963867 1.78615723 9.06005859 2.70629883 C9.13818698 6.02200708 9.22487971 9.33726162 9.31738281 12.65258789 C9.35564866 14.08707068 9.39050581 15.52164865 9.421875 16.95629883 C9.46757862 19.01938878 9.52556193 21.08182495 9.5859375 23.14453125 C9.6173584 24.38565674 9.6487793 25.62678223 9.68115234 26.90551758 C9.77399209 30.16636101 9.77399209 30.16636101 12 33 C11.01 34.98 10.02 36.96 9 39 C3.58248731 37.55532995 3.58248731 37.55532995 1.3190918 35.39746094 C-0.50009894 32.09106579 -0.37405366 29.06257184 -0.29296875 25.390625 C-0.28872391 24.66381531 -0.28447906 23.93700562 -0.28010559 23.18817139 C-0.2633613 20.87506496 -0.22571885 18.56284145 -0.1875 16.25 C-0.17244758 14.67839803 -0.15876015 13.10678236 -0.14648438 11.53515625 C-0.11347195 7.68976585 -0.06172056 3.84503244 0 0 Z " fill="#005CA7" transform="translate(184,134)"/>
    <path d="M0 0 C2.64 7.92 5.28 15.84 8 24 C2.20048515 21.68019406 -3.04025374 18.66712718 -8.43066406 15.55029297 C-10.25487213 14.49718735 -12.08423571 13.45346135 -13.9140625 12.41015625 C-15.07324045 11.74274955 -16.23210598 11.07479986 -17.390625 10.40625 C-18.9689209 9.49842773 -18.9689209 9.49842773 -20.57910156 8.57226562 C-23 7 -23 7 -24 5 C-21.43786446 4.35269196 -18.87531515 3.70710712 -16.3125 3.0625 C-15.59126953 2.88009766 -14.87003906 2.69769531 -14.12695312 2.50976562 C-4.13352273 0 -4.13352273 0 0 0 Z " fill="#1474BE" transform="translate(170,93)"/>
    <path d="M0 0 C0.99 0.33 1.98 0.66 3 1 C3.94921875 3.36328125 3.94921875 3.36328125 4.6875 6.3125 C4.93886719 7.27800781 5.19023437 8.24351563 5.44921875 9.23828125 C6 12 6 12 6 16 C1.92657953 17.28718413 -2.14854571 18.5687739 -6.2253418 19.84521484 C-7.61189162 20.2802045 -8.99796445 20.71671763 -10.38354492 21.15478516 C-12.37555392 21.7842914 -14.36921559 22.4082939 -16.36328125 23.03125 C-17.56251221 23.40830078 -18.76174316 23.78535156 -19.99731445 24.17382812 C-23 25 -23 25 -26 25 C-26 23 -26 23 -24.6015625 21.58984375 C-23.94929688 21.04457031 -23.29703125 20.49929687 -22.625 19.9375 C-19.37058933 17.17182591 -16.16586167 14.36691808 -13 11.5 C-12.16339844 10.74976563 -11.32679688 9.99953125 -10.46484375 9.2265625 C-8.86059292 7.77739772 -7.268657 6.31444328 -5.69140625 4.8359375 C-4.98886719 4.18882813 -4.28632813 3.54171875 -3.5625 2.875 C-2.94503906 2.29492188 -2.32757813 1.71484375 -1.69140625 1.1171875 C-1.13324219 0.74851562 -0.57507813 0.37984375 0 0 Z " fill="#0E6DB7" transform="translate(141,8)"/>
    <path d="M0 0 C3.5908444 0.4833829 3.94709234 0.79289784 6.125 3.4375 C7.176875 4.9225 7.176875 4.9225 8.25 6.4375 C8.58 5.4475 8.91 4.4575 9.25 3.4375 C12.22 3.4375 15.19 3.4375 18.25 3.4375 C18.25 4.0975 18.25 4.7575 18.25 5.4375 C17.26 5.9325 17.26 5.9325 16.25 6.4375 C16.91 6.7675 17.57 7.0975 18.25 7.4375 C18.25 9.0875 18.25 10.7375 18.25 12.4375 C15.94 12.4375 13.63 12.4375 11.25 12.4375 C11.25 11.7775 11.25 11.1175 11.25 10.4375 C12.24 10.1075 13.23 9.7775 14.25 9.4375 C13.26 9.1075 12.27 8.7775 11.25 8.4375 C10.26 10.7475 9.27 13.0575 8.25 15.4375 C6.6 15.4375 4.95 15.4375 3.25 15.4375 C3.25 14.7775 3.25 14.1175 3.25 13.4375 C4.24 13.4375 5.23 13.4375 6.25 13.4375 C5.92 12.4475 5.59 11.4575 5.25 10.4375 C4.1671875 11.2109375 4.1671875 11.2109375 3.0625 12 C-0.1695366 13.65192982 -1.36608307 13.50101675 -4.75 12.4375 C-4.09 11.4475 -3.43 10.4575 -2.75 9.4375 C-1.43 9.7675 -0.11 10.0975 1.25 10.4375 C-0.00541557 7.92666886 -1.25063488 7.56624554 -3.75 6.4375 C-3.792721 4.77138095 -3.79063832 3.10367115 -3.75 1.4375 C-2.75 0.4375 -2.75 0.4375 0 0 Z M-0.75 2.4375 C-1.08 3.0975 -1.41 3.7575 -1.75 4.4375 C0.23 5.4275 2.21 6.4175 4.25 7.4375 C3.92 6.1175 3.59 4.7975 3.25 3.4375 C1.93 3.1075 0.61 2.7775 -0.75 2.4375 Z " fill="#606060" transform="translate(277.75,177.5625)"/>
    <path d="M0 0 C1.19625 0.04125 2.3925 0.0825 3.625 0.125 C4.945 0.125 6.265 0.125 7.625 0.125 C9.625 0.125 11.625 0.125 13.625 0.125 C13.625 1.115 13.625 2.105 13.625 3.125 C12.305 3.455 10.985 3.785 9.625 4.125 C11.275 5.115 12.925 6.105 14.625 7.125 C14.295 8.775 13.965 10.425 13.625 12.125 C9.1056867 13.38036481 9.1056867 13.38036481 6.625 12.0625 C5.965 11.753125 5.305 11.44375 4.625 11.125 C3.820625 11.475625 3.01625 11.82625 2.1875 12.1875 C-0.375 13.125 -0.375 13.125 -3.1875 12.25 C-5.66389368 9.84436042 -5.72853914 9.35496504 -5.8125 6.0625 C-5.26729957 1.1556961 -4.9918372 0.18488286 0 0 Z M-1.375 2.125 C-3.68171915 4.84049154 -3.68171915 4.84049154 -3 7.3125 C-2.79375 7.910625 -2.5875 8.50875 -2.375 9.125 C-0.395 9.62 -0.395 9.62 1.625 10.125 C2.75016085 8.29215557 2.75016085 8.29215557 3.625 6.125 C3.295 5.135 2.965 4.145 2.625 3.125 C0.60991642 2.39176204 0.60991642 2.39176204 -1.375 2.125 Z M5.625 5.125 C5.625 6.775 5.625 8.425 5.625 10.125 C7.605 10.125 9.585 10.125 11.625 10.125 C11.625 9.465 11.625 8.805 11.625 8.125 C9.645 7.135 7.665 6.145 5.625 5.125 Z " fill="#606060" transform="translate(213.375,177.875)"/>
    <path d="M0 0 C0.99 0 1.98 0 3 0 C3 0.99 3 1.98 3 3 C6.3 3 9.6 3 13 3 C13.33 4.65 13.66 6.3 14 8 C12.35 8.33 10.7 8.66 9 9 C10.32 9.33 11.64 9.66 13 10 C13 10.66 13 11.32 13 12 C11.02090602 12.02686553 9.04171029 12.04633375 7.0625 12.0625 C5.96035156 12.07410156 4.85820312 12.08570313 3.72265625 12.09765625 C1 12 1 12 0 11 C-0.07226502 9.14712498 -0.0838122 7.29166122 -0.0625 5.4375 C-0.05347656 4.42558594 -0.04445313 3.41367188 -0.03515625 2.37109375 C-0.02355469 1.58863281 -0.01195312 0.80617187 0 0 Z M3 5 C3 6.65 3 8.3 3 10 C3.99 10 4.98 10 6 10 C6 8.35 6 6.7 6 5 C5.01 5 4.02 5 3 5 Z " fill="#606060" transform="translate(297,178)"/>
    <path d="M0 0 C1.7325 0.1546875 1.7325 0.1546875 3.5 0.3125 C5.5 3.3125 5.5 3.3125 5.25 5.875 C4.5 8.3125 4.5 8.3125 2.5 10.3125 C-0.5 10.625 -0.5 10.625 -3.5 10.3125 C-5.64915785 7.08876323 -5.88286803 6.04546326 -5.5 2.3125 C-3.5 0.3125 -3.5 0.3125 0 0 Z " fill="#005CA7" transform="translate(188.5,121.6875)"/>
    <path d="M0 0 C3.5625 0.1875 3.5625 0.1875 5.5625 2.1875 C4.98557692 8.76442308 4.98557692 8.76442308 3.5625 10.1875 C0.6875 10.5 0.6875 10.5 -2.4375 10.1875 C-4.375 8.5 -4.375 8.5 -5.4375 6.1875 C-4.99990706 1.48337586 -4.87545827 0.26593409 0 0 Z " fill="#005CA7" transform="translate(287.4375,121.8125)"/>
    <path d="M0 0 C3.375 -0.125 3.375 -0.125 7 0 C7.66 0.66 8.32 1.32 9 2 C8.69496569 4.00451121 8.35919321 6.00448218 8 8 C8.3577614 10.27650745 8.3577614 10.27650745 9 12 C8.01 12 7.02 12 6 12 C5.34 11.01 4.68 10.02 4 9 C3.67 9.99 3.34 10.98 3 12 C2.01 12 1.02 12 0 12 C0 8.04 0 4.08 0 0 Z M3 2 C3.33 3.32 3.66 4.64 4 6 C4.66 5.67 5.32 5.34 6 5 C5.67 4.01 5.34 3.02 5 2 C4.34 2 3.68 2 3 2 Z " fill="#606060" transform="translate(252,178)"/>
    <path d="M0 0 C3.96 0 7.92 0 12 0 C12 2.97 12 5.94 12 9 C11.34 9 10.68 9 10 9 C9.87625 8.030625 9.7525 7.06125 9.625 6.0625 C9.41875 5.051875 9.2125 4.04125 9 3 C8.34 2.67 7.68 2.34 7 2 C7 4.31 7 6.62 7 9 C6.34 9 5.68 9 5 9 C4.87625 8.030625 4.7525 7.06125 4.625 6.0625 C4.315625 4.5465625 4.315625 4.5465625 4 3 C3.34 2.67 2.68 2.34 2 2 C2 4.31 2 6.62 2 9 C1.34 9 0.68 9 0 9 C0 6.03 0 3.06 0 0 Z " fill="#606060" transform="translate(312,181)"/>
    <path d="M0 0 C2.64 0 5.28 0 8 0 C8 0.66 8 1.32 8 2 C6.35 2 4.7 2 3 2 C3 2.99 3 3.98 3 5 C4.32 5 5.64 5 7 5 C7 5.66 7 6.32 7 7 C5.68 7 4.36 7 3 7 C3 7.99 3 8.98 3 10 C4.65 10 6.3 10 8 10 C8 10.66 8 11.32 8 12 C5.36 12 2.72 12 0 12 C0 8.04 0 4.08 0 0 Z " fill="#606060" transform="translate(243,178)"/>
    <path d="M0 0 C2.31 0 4.62 0 7 0 C8.125 2.3125 8.125 2.3125 9 5 C8.01 6.485 8.01 6.485 7 8 C4.375 8.1875 4.375 8.1875 2 8 C2 9.32 2 10.64 2 12 C1.34 12 0.68 12 0 12 C0 8.04 0 4.08 0 0 Z M2 2 C2 3.32 2 4.64 2 6 C3.32 5.67 4.64 5.34 6 5 C6 4.34 6 3.68 6 3 C4.68 2.67 3.36 2.34 2 2 Z " fill="#606060" transform="translate(262,178)"/>
    <path d="M0 0 C2.33294775 -0.04241723 4.66702567 -0.04092937 7 0 C8 1 8 1 8.125 4 C8 7 8 7 7 8 C5.33382885 8.04063832 3.66611905 8.042721 2 8 C2 9.32 2 10.64 2 12 C1.34 12 0.68 12 0 12 C0 8.04 0 4.08 0 0 Z M2 2 C2 3.32 2 4.64 2 6 C3.32 5.67 4.64 5.34 6 5 C6 4.34 6 3.68 6 3 C4.68 2.67 3.36 2.34 2 2 Z " fill="#606060" transform="translate(199,178)"/>
    <path d="M0 0 C0.66 0 1.32 0 2 0 C2 1.32 2 2.64 2 4 C2.99 4 3.98 4 5 4 C5 4.66 5 5.32 5 6 C4.01 6 3.02 6 2 6 C2 6.99 2 7.98 2 9 C1.34 9 0.68 9 0 9 C0 8.01 0 7.02 0 6 C-0.99 6 -1.98 6 -3 6 C-3 5.34 -3 4.68 -3 4 C-2.01 4 -1.02 4 0 4 C0 2.68 0 1.36 0 0 Z " fill="#606060" transform="translate(234,180)"/>
</svg>
